<?xml version="1.0" encoding="iso-8859-1"?>
<!-- Generator: Adobe Illustrator 16.0.0, SVG Export Plug-In . SVG Version: 6.00 Build 0)  -->
<!DOCTYPE svg PUBLIC "-//W3C//DTD SVG 1.1//EN" "http://www.w3.org/Graphics/SVG/1.1/DTD/svg11.dtd">
<svg version="1.1" id="Capa_1" xmlns="http://www.w3.org/2000/svg" xmlns:xlink="http://www.w3.org/1999/xlink" x="0px" y="0px"
	 width="332.005px" height="332.005px" viewBox="0 0 332.005 332.005" style="enable-background:new 0 0 332.005 332.005;"
	 xml:space="preserve">
<g>
	<path style="fill:#fff;" d="M332.005,171.866v-11.713h-72.613c-1.338-21.42-9.857-40.87-23.231-56.017l51.353-51.362
		l-8.279-8.279L227.88,95.856c-15.152-13.38-34.6-21.9-56.022-23.235V0.005h-11.71v72.61c-21.42,1.335-40.87,9.855-56.017,23.235
		L52.769,44.489l-8.279,8.277l51.362,51.365c-13.38,15.147-21.9,34.603-23.235,56.017H0v11.708h72.61
		c1.335,21.419,9.855,40.872,23.235,56.02l-51.362,51.364l8.28,8.28l51.362-51.365c15.147,13.38,34.603,21.9,56.017,23.232V332
		h11.711v-72.607c21.416-1.333,40.869-9.858,56.016-23.232l51.365,51.359l8.279-8.28l-51.364-51.359
		c13.374-15.146,21.899-34.6,23.232-56.014H332.005z M166.002,247.984c-45.204,0-81.973-36.777-81.973-81.973
		c0-45.207,36.77-81.977,81.973-81.977s81.976,36.77,81.976,81.977C247.979,211.207,211.206,247.984,166.002,247.984z"/>
</g>
<g>
</g>
<g>
</g>
<g>
</g>
<g>
</g>
<g>
</g>
<g>
</g>
<g>
</g>
<g>
</g>
<g>
</g>
<g>
</g>
<g>
</g>
<g>
</g>
<g>
</g>
<g>
</g>
<g>
</g>
</svg>
